<svg xmlns="http://www.w3.org/2000/svg" width="150" height="150" viewBox="0 0 150 150"><rect width="100%" height="100%" fill="#007bff"/><path fill="#ffffff" d="M44.615 62.355h3.32v20.24h-1.93q-.45 0-.75-.15-.3-.14-.58-.49l-10.57-13.5q.08.92.08 1.71v12.43h-3.32v-20.24h1.98q.24 0 .41.02.18.02.31.08t.26.18q.12.12.28.32l10.61 13.55q-.04-.49-.07-.97-.03-.47-.03-.88zm13.64 5.65q1.59 0 2.9.52t2.24 1.47 1.44 2.32q.5 1.38.5 3.07 0 1.71-.5 3.08-.51 1.37-1.44 2.34-.93.96-2.24 1.48t-2.9.52q-1.61 0-2.93-.52-1.31-.52-2.25-1.48-.93-.97-1.44-2.34t-.51-3.08q0-1.69.51-3.07.51-1.37 1.44-2.32.94-.95 2.25-1.47 1.32-.52 2.93-.52m0 12.14q1.79 0 2.65-1.2.86-1.21.86-3.53 0-2.33-.86-3.54-.86-1.22-2.65-1.22-1.82 0-2.7 1.22-.87 1.23-.87 3.54t.87 3.52q.88 1.21 2.7 1.21m20.86-17.79v20.24h-3.78v-20.24zm7.43 20.24h-3.46v-14.36h2.12q.67 0 .88.63l.22 1.06q.38-.42.79-.77.42-.35.89-.6t1-.4q.54-.15 1.19-.15 1.36 0 2.23.74.88.73 1.31 1.95.34-.71.84-1.23.5-.51 1.11-.83.6-.32 1.28-.47.68-.16 1.36-.16 1.19 0 2.12.37.92.36 1.55 1.06t.96 1.71.33 2.31v9.14h-3.46v-9.14q0-1.37-.6-2.07-.6-.69-1.77-.69-.53 0-.98.18-.46.18-.8.53-.34.34-.54.86t-.2 1.19v9.14h-3.47v-9.14q0-1.44-.58-2.1t-1.7-.66q-.76 0-1.41.37t-1.21 1.02zm25.24-7.53q.65 0 1.12-.18.48-.17.79-.48.32-.31.48-.74.16-.44.16-.95 0-1.07-.64-1.69-.63-.62-1.91-.62-1.27 0-1.91.62-.63.62-.63 1.69 0 .5.16.93.16.44.47.75.32.32.8.49.48.18 1.11.18m3.91 8.17q0-.42-.25-.68-.25-.27-.69-.42-.43-.14-1.01-.21t-1.24-.11l-1.34-.06q-.69-.03-1.35-.11-.57.32-.93.75-.36.44-.36 1.01 0 .38.19.71t.6.57q.42.23 1.07.37.66.13 1.61.13.97 0 1.67-.15.7-.14 1.15-.4.46-.26.67-.62t.21-.78m-.69-14.51h4.13v1.28q0 .62-.74.76l-1.29.24q.3.74.3 1.62 0 1.07-.43 1.93t-1.18 1.46q-.76.6-1.79.93t-2.22.33q-.42 0-.81-.04t-.77-.11q-.67.4-.67.91 0 .43.4.63.4.21 1.06.29.65.08 1.49.1.84.03 1.73.1.88.07 1.72.24.84.18 1.5.55.65.38 1.05 1.03t.4 1.68q0 .95-.47 1.84-.47.9-1.36 1.6-.88.7-2.18 1.13-1.29.42-2.95.42-1.62 0-2.82-.31-1.21-.32-2.01-.84-.79-.53-1.19-1.21-.39-.69-.39-1.43 0-1.01.61-1.69t1.67-1.08q-.57-.3-.91-.79-.33-.49-.33-1.28 0-.33.12-.67t.35-.68q.23-.33.58-.64.35-.3.82-.53-1.09-.59-1.71-1.57t-.62-2.3q0-1.06.42-1.92.43-.86 1.19-1.47.77-.61 1.81-.93 1.04-.33 2.27-.33.93 0 1.74.19t1.48.56"/></svg>