<svg xmlns="http://www.w3.org/2000/svg" width="150" height="150" viewBox="0 0 150 150"><rect width="100%" height="100%" fill="#7033fd"/><path fill="#ffffff" d="M33.435 65.06v15.91h-2.97V65.06zm5.84 15.91h-2.71V69.68h1.66q.53 0 .69.5l.18.83q.29-.33.62-.6.32-.27.69-.47t.79-.32q.43-.11.93-.11 1.07 0 1.76.58.69.57 1.03 1.53.26-.56.66-.96.39-.4.87-.66.47-.25 1-.37.54-.12 1.07-.12.94 0 1.67.28.72.29 1.22.84.49.55.75 1.34t.26 1.82v7.18h-2.72v-7.18q0-1.08-.47-1.63-.47-.54-1.39-.54-.42 0-.77.14-.36.15-.63.42-.27.26-.42.67-.16.41-.16.94v7.18h-2.73v-7.18q0-1.14-.45-1.65-.46-.52-1.34-.52-.59 0-1.1.29-.52.29-.96.8zm19.84-5.92q.5 0 .88-.14.37-.13.62-.37.25-.25.37-.59.13-.34.13-.75 0-.83-.5-1.32t-1.5-.49-1.5.49-.5 1.32q0 .4.12.74.13.34.38.59.24.25.62.38.38.14.88.14m3.07 6.43q0-.33-.2-.54t-.54-.33q-.34-.11-.8-.17-.45-.05-.97-.08-.51-.03-1.05-.05-.55-.02-1.06-.09-.45.26-.74.6-.28.34-.28.79 0 .29.15.55t.48.45q.32.19.84.29.51.1 1.26.1.76 0 1.31-.11.55-.12.91-.32t.52-.48q.17-.28.17-.61m-.54-11.41h3.24v1.01q0 .49-.58.6l-1.01.18q.23.58.23 1.28 0 .83-.34 1.51-.33.68-.93 1.15-.59.47-1.4.73t-1.74.26q-.33 0-.64-.03-.31-.04-.61-.09-.52.32-.52.71 0 .35.31.5.31.16.83.23t1.18.08q.66.02 1.35.07.69.06 1.35.2.66.13 1.18.43t.83.81.31 1.31q0 .75-.36 1.46-.37.7-1.07 1.25t-1.72.89q-1.01.33-2.31.33-1.28 0-2.22-.25-.95-.24-1.58-.66-.62-.41-.93-.95t-.31-1.12q0-.79.48-1.33.48-.53 1.31-.85-.45-.23-.71-.61-.27-.39-.27-1.02 0-.25.1-.52.09-.27.27-.53.18-.27.46-.5.27-.24.65-.43-.86-.46-1.35-1.23t-.49-1.8q0-.84.34-1.51.33-.68.93-1.16t1.42-.73 1.79-.25q.72 0 1.36.14.64.15 1.17.44m12.45 3.96h5.13q0-.53-.15-1-.15-.46-.45-.82-.3-.35-.75-.55-.46-.2-1.06-.2-1.18 0-1.86.67-.67.67-.86 1.9m6.93 1.64h-6.99q.07.87.31 1.5t.64 1.04q.4.42.94.62.55.2 1.21.2t1.13-.15q.48-.15.84-.34t.63-.34q.27-.16.52-.16.34 0 .51.26l.78.99q-.45.52-1.02.88-.56.36-1.17.57-.61.22-1.24.31-.63.08-1.23.08-1.17 0-2.19-.39-1.01-.39-1.76-1.15-.74-.77-1.17-1.89-.43-1.13-.43-2.61 0-1.16.37-2.18.38-1.01 1.07-1.77.7-.75 1.71-1.19t2.27-.44q1.07 0 1.97.34t1.55.99q.65.66 1.02 1.61t.37 2.17q0 .62-.13.83-.14.22-.51.22m5.07-5.3.17 1.27q.52-1.01 1.25-1.59.73-.57 1.72-.57.78 0 1.25.34l-.18 2.03q-.05.2-.16.28-.1.08-.28.08-.16 0-.49-.05-.32-.06-.63-.06-.45 0-.8.14-.35.13-.63.38-.28.24-.5.6-.21.35-.4.8v6.95h-2.72V69.68h1.6q.42 0 .58.15.17.15.22.54m8.21 0 .16 1.27q.53-1.01 1.26-1.59.72-.57 1.71-.57.78 0 1.26.34l-.18 2.03q-.06.2-.16.28t-.28.08q-.17 0-.49-.05-.32-.06-.63-.06-.45 0-.81.14-.35.13-.63.38-.28.24-.49.6-.22.35-.4.8v6.95h-2.72V69.68h1.59q.42 0 .59.15.16.15.22.54m10.8-.86q1.25 0 2.28.41 1.03.4 1.76 1.15t1.13 1.83q.39 1.07.39 2.4 0 1.35-.39 2.43-.4 1.07-1.13 1.83t-1.76 1.17q-1.03.4-2.28.4-1.27 0-2.3-.4-1.03-.41-1.77-1.17-.73-.76-1.13-1.83-.4-1.08-.4-2.43 0-1.33.4-2.4.4-1.08 1.13-1.83.74-.75 1.77-1.15 1.03-.41 2.3-.41m0 9.54q1.41 0 2.08-.95.68-.95.68-2.77 0-1.83-.68-2.79-.67-.95-2.08-.95-1.43 0-2.12.96t-.69 2.78q0 1.81.69 2.76.69.96 2.12.96m10.04-8.68.17 1.27q.52-1.01 1.25-1.59.73-.57 1.72-.57.78 0 1.25.34l-.18 2.03q-.05.2-.16.28-.1.08-.28.08-.16 0-.49-.05-.32-.06-.63-.06-.45 0-.8.14-.35.13-.63.38-.28.24-.5.6-.21.35-.4.8v6.95h-2.72V69.68h1.6q.42 0 .58.15.17.15.22.54"/></svg>