<svg xmlns="http://www.w3.org/2000/svg" width="150" height="150" viewBox="0 0 150 150"><rect width="100%" height="100%" fill="#007bff"/><path fill="#ffffff" d="M45.04 65.495v2.87h-5.67v15.93h-3.49v-15.93h-5.67v-2.87zm10.25 5.46h3.21v13.34h-1.97q-.63 0-.8-.59l-.22-1.06q-.82.83-1.81 1.34-.99.52-2.33.52-1.09 0-1.93-.37t-1.41-1.05-.86-1.6q-.3-.93-.3-2.05v-8.48h3.22v8.48q0 1.22.56 1.89.57.67 1.7.67.83 0 1.56-.37t1.38-1.02zm25.06-2.68H72v5.57h7.05v2.79H72v7.66h-3.51v-18.8h11.86zm8.25 2.47q1.49 0 2.7.48 1.22.49 2.08 1.37.87.88 1.33 2.16.47 1.27.47 2.84 0 1.59-.47 2.86-.46 1.28-1.33 2.18-.86.89-2.08 1.37-1.21.49-2.7.49t-2.71-.49q-1.22-.48-2.09-1.37-.86-.9-1.34-2.18-.47-1.27-.47-2.86 0-1.57.47-2.84.48-1.28 1.34-2.16.87-.88 2.09-1.37 1.22-.48 2.71-.48m0 11.27q1.67 0 2.47-1.11.8-1.12.8-3.28t-.8-3.29-2.47-1.13q-1.69 0-2.5 1.14t-.81 3.28q0 2.15.81 3.27t2.5 1.12m13.49 2.49q-1.75 0-2.68-.98-.93-.99-.93-2.71v-7.45h-1.36q-.26 0-.44-.17t-.18-.51v-1.27l2.14-.35.68-3.64q.06-.26.24-.41.19-.14.47-.14h1.67v4.2h3.56v2.29h-3.56v7.22q0 .63.3.98.31.35.84.35.3 0 .5-.07t.35-.15.27-.15q.11-.07.23-.07.14 0 .24.07.09.07.19.21l.96 1.56q-.7.59-1.61.89t-1.88.3m11.12-13.76q1.49 0 2.7.48 1.22.49 2.08 1.37.87.88 1.33 2.16.47 1.27.47 2.84 0 1.59-.47 2.86-.46 1.28-1.33 2.18-.86.89-2.08 1.37-1.21.49-2.7.49t-2.71-.49q-1.23-.48-2.09-1.37-.86-.9-1.34-2.18-.47-1.27-.47-2.86 0-1.57.47-2.84.48-1.28 1.34-2.16t2.09-1.37q1.22-.48 2.71-.48m0 11.27q1.67 0 2.47-1.11.8-1.12.8-3.28t-.8-3.29-2.47-1.13q-1.69 0-2.5 1.14t-.81 3.28q0 2.15.81 3.27t2.5 1.12"/></svg>